<svg xmlns="http://www.w3.org/2000/svg" width="800" height="800" viewBox="0 0 901.417 901.418" xml:space="preserve"><path d="M890.708 64.779c-39.6-27.7-162-95.8-298.1 4.9-44.4-14.1-92.101-21.8-141.9-21.8s-97.5 7.7-141.9 21.8c-136.1-100.7-258.5-32.7-298.1-4.9-8.2 5.7-12.2 15.8-10.2 25.6l46.2 221.8c-13.1 36.7-20.2 75.9-20.2 116.5 0 96.2 39.7 184.1 105.3 251.1 14.6 16.301 86.7 98.801 124.5 176.801 8.4 17.3 25.8 28.399 45.1 28.399h50.399c27.601 0 50-22.399 50-50V807.08c16 1.699 32.4 2.5 48.9 2.5s32.8-.9 48.9-2.5v27.899c0 27.601 22.399 50 50 50h50.399c19.2 0 36.7-11.1 45.101-28.399 37.699-77.9 109.899-160.4 124.5-176.801 65.5-67 105.3-154.899 105.3-251.1 0-40.6-7.101-79.8-20.2-116.5l46.2-221.8c2.002-9.8-1.998-19.9-10.199-25.6zm-617.599 251v-59.4c0-13.8 11.199-25 25-25h2.699c13.801 0 25 11.2 25 25v59.4c0 13.8-11.199 25-25 25h-2.699c-13.801-.001-25-11.1-25-25zm177.599 329.7c-93.9 0-170-58.899-170-131.6s76.1-131.601 170-131.601 170 58.9 170 131.601-76.099 131.6-170 131.6zm179.901-329.7c0 13.8-11.2 25-25 25h-2.7c-13.8 0-25-11.199-25-25v-59.4c0-13.8 11.2-25 25-25h2.7c13.8 0 25 11.2 25 25v59.4z"/><ellipse cx="383.409" cy="513.878" rx="33.399" ry="36.1"/><ellipse cx="518.008" cy="513.878" rx="33.4" ry="36.1"/></svg>