<svg width="800" height="800" viewBox="0 0 24 24" fill="none" xmlns="http://www.w3.org/2000/svg"><path d="m20.58 19.37-2.99-8.36a1.3 1.3 0 0 0-1.22-.89c-.54 0-1 .34-1.23.91l-2.98 8.34a.75.75 0 1 0 1.41.51l.62-1.73h4.35l.62 1.73a.75.75 0 0 0 .96.46.75.75 0 0 0 .45-.96l.01-.01Zm-5.84-2.73 1.64-4.59 1.64 4.59h-3.28Zm-2.55-8.79c-2.26 3.57-4.3 5.73-6.78 7.17a.75.75 0 1 1-.75-1.29c2.1-1.22 3.82-2.97 5.75-5.87H4.12a.76.76 0 0 1-.75-.75c0-.41.34-.75.75-.75h3.75V4.38c0-.41.34-.75.75-.75s.75.34.75.75v1.98h3.75c.41 0 .75.34.75.75s-.34.75-.75.75h-.94l.01-.01Zm.04 7.27a.75.75 0 0 1-.38-.1 20.2 20.2 0 0 1-1.87-1.24.75.75 0 0 1 .9-1.2c.54.41 1.13.79 1.73 1.14a.75.75 0 0 1-.38 1.4Z" fill="currentColor"/></svg>